<?xml version="1.0" encoding="UTF-8"?><svg id="Layer_2" xmlns="http://www.w3.org/2000/svg" viewBox="0 0 141.73 113.39"><defs><style>.cls-1{fill:#6e6e6d;}</style></defs><g id="Layer_1-2"><path id="Icon_awesome-eye-slash" class="cls-1" d="M70.86,88.6c-16.64-.02-30.44-12.88-31.64-29.48l-23.2-17.93c-3.12,3.81-5.86,7.92-8.16,12.27-1.03,2.03-1.03,4.43,0,6.47,11.94,23.9,36.29,39.08,63.01,39.28,5.82-.04,11.62-.82,17.25-2.32l-11.49-8.89c-1.9,.37-3.83,.57-5.76,.6Zm69.5,12.87l-24.48-18.92c7.44-6.27,13.55-13.95,17.99-22.6,1.03-2.03,1.03-4.43,0-6.47-11.94-23.91-36.28-39.1-63.01-39.31-11.4,.01-22.62,2.88-32.62,8.35L10.07,.75c-1.55-1.2-3.77-.92-4.97,.62h0L.75,6.97c-1.2,1.55-.92,3.77,.62,4.97h0L131.66,112.64c1.55,1.2,3.77,.92,4.97-.62h0l4.35-5.6c1.2-1.55,.92-3.77-.62-4.97h0v.02Zm-40.69-31.47l-8.7-6.71c3.79-10.95-2.02-22.9-12.97-26.69-4.11-1.42-8.57-1.53-12.74-.31,1.34,1.81,2.06,4,2.06,6.25-.03,.75-.15,1.49-.34,2.21l-16.3-12.61c5.66-4.74,12.8-7.34,20.18-7.35,17.6-.01,31.88,14.25,31.89,31.85,0,.01,0,.03,0,.04-.03,4.61-1.08,9.16-3.08,13.31h0Z"/></g></svg>