<?xml version="1.0" encoding="UTF-8"?><svg id="Layer_2" xmlns="http://www.w3.org/2000/svg" viewBox="0 0 170.08 113.39"><defs><style>.cls-1{fill:#6e6e6d;}</style></defs><g id="Layer_1-2"><path id="Icon_awesome-eye" class="cls-1" d="M169.05,52.38C153.13,20.51,120.66,.27,85.04,0,49.41,.27,16.95,20.51,1.03,52.38c-1.37,2.71-1.37,5.91,0,8.62,15.92,31.87,48.38,52.12,84.01,52.38,35.63-.27,68.09-20.51,84.01-52.38,1.37-2.71,1.37-5.91,0-8.62Zm-84.01,46.83c-23.48,0-42.52-19.04-42.52-42.52S61.55,14.17,85.04,14.17s42.52,19.04,42.52,42.52-19.04,42.52-42.52,42.52h0Zm0-70.87c-2.53,.03-5.04,.41-7.48,1.12,4.6,6.3,3.21,15.14-3.09,19.74-4.96,3.61-11.68,3.61-16.64,0-4.09,15.07,4.81,30.61,19.88,34.71,15.07,4.09,30.61-4.81,34.71-19.88,4.09-15.07-4.81-30.61-19.88-34.71-2.44-.66-4.95-.99-7.48-.99l-.02,.02Z"/></g></svg>