<?xml version="1.0" encoding="UTF-8"?><svg id="Layer_2" xmlns="http://www.w3.org/2000/svg" viewBox="0 0 114.08 113.39"><defs><style>.cls-1{fill:#fff;}</style></defs><g id="Layer_1-2"><path id="Icon_awesome-facebook" class="cls-1" d="M114.08,57.03C114.08,25.53,88.54,0,57.03,0,25.53,0,0,25.55,0,57.05c0,28.07,20.43,51.96,48.15,56.33v-39.86h-14.48v-16.49h14.49v-12.55c0-14.29,8.51-22.19,21.55-22.19,4.28,.06,8.55,.44,12.77,1.12v14.01h-7.21c-4.51-.6-8.66,2.58-9.26,7.09-.08,.6-.09,1.21-.04,1.81v10.69h15.8l-2.53,16.49h-13.27v39.86c27.7-4.4,48.1-28.28,48.11-56.34Z"/></g></svg>