<?xml version="1.0" encoding="UTF-8"?><svg id="Layer_2" xmlns="http://www.w3.org/2000/svg" viewBox="0 0 113.39 113.39"><defs><style>.cls-1{fill:#fff;}</style></defs><g id="Layer_1-2"><path id="Icon_material-account-circle" class="cls-1" d="M56.69,0C25.38,0,0,25.38,0,56.69s25.38,56.69,56.69,56.69,56.69-25.38,56.69-56.69C113.38,25.39,88,.01,56.69,0Zm0,17.01c9.39,0,17.01,7.61,17.01,17.01s-7.61,17.01-17.01,17.01-17.01-7.61-17.01-17.01c-.01-9.38,7.58-17,16.96-17.01,.02,0,.03,0,.05,0Zm0,80.5c-13.68,0-26.45-6.85-34.02-18.26,.17-11.28,22.68-17.46,34.02-17.46s33.85,6.18,34.02,17.46c-7.56,11.4-20.33,18.26-34.02,18.26Z"/></g></svg>