<?xml version="1.0" encoding="UTF-8"?><svg id="Layer_2" xmlns="http://www.w3.org/2000/svg" viewBox="0 0 116.3 113.39"><defs><style>.cls-1{fill:#fff;}</style></defs><g id="Layer_1-2"><path id="Icon_awesome-github" class="cls-1" d="M38.9,91.28c0,.46-.54,.85-1.22,.85-.77,.07-1.31-.31-1.31-.85,0-.46,.54-.85,1.22-.85,.7-.05,1.31,.33,1.31,.85Zm-7.29-1.04c-.16,.46,.31,1.01,1.01,1.15,.53,.26,1.17,.06,1.45-.46,.14-.46-.31-1.01-1.01-1.22-.55-.2-1.16,.03-1.45,.53Zm10.36-.4c-.68,.16-1.15,.61-1.08,1.15,.07,.46,.68,.77,1.39,.61s1.15-.61,1.08-1.08-.72-.75-1.39-.68ZM57.4,.02C26.35-.62,.65,24.03,.01,55.08c-.01,.71-.02,1.42,0,2.14-.2,25.3,15.8,47.88,39.74,56.07,3,.54,4.06-1.31,4.06-2.84s-.07-9.47-.07-14.41c0,0-16.41,3.52-19.85-6.97,0,0-2.67-6.82-6.51-8.58,0,0-5.37-3.68,.38-3.61,3.78,.51,7.11,2.74,9.03,6.03,3.23,6.03,10.74,8.3,16.77,5.07,.11-.06,.21-.12,.32-.18,.3-2.99,1.63-5.78,3.75-7.9-13.11-1.45-26.32-3.35-26.32-25.91-.26-5.18,1.76-10.22,5.53-13.79-1.78-5.2-1.56-10.87,.6-15.92,4.91-1.52,16.18,6.33,16.18,6.33,9.63-2.66,19.81-2.66,29.44,0,0,0,11.28-7.88,16.17-6.33,2.17,5.05,2.39,10.72,.61,15.92,3.91,3.52,6.11,8.55,6.04,13.81,0,22.62-13.81,24.43-26.91,25.91,2.86,2.87,4.33,6.84,4.01,10.88,0,7.9-.07,17.66-.07,19.6,0,1.52,1.08,3.37,4.06,2.84,23.86-8.19,39.74-30.81,39.32-56.04C116.14,25.47,90.29-.15,58.54,0c-.38,0-.76,0-1.14,.02ZM22.78,80.87c-.31,.23-.23,.77,.16,1.22,.38,.38,.93,.54,1.22,.23,.31-.23,.23-.77-.16-1.22-.36-.37-.9-.53-1.22-.23Zm-2.53-1.9c-.16,.31,.07,.68,.54,.93,.3,.24,.74,.18,.98-.12,.01-.01,.02-.03,.03-.04,.16-.31-.07-.68-.54-.93-.46-.14-.83-.07-.99,.17h-.01Zm7.59,8.36c-.38,.31-.23,1.01,.31,1.45,.54,.54,1.22,.61,1.52,.23,.31-.31,.16-1.01-.31-1.45-.5-.55-1.2-.62-1.51-.25h-.01Zm-2.67-3.43c-.38,.23-.38,.85,0,1.39s1.01,.77,1.31,.54c.38-.41,.38-1.04,0-1.45-.31-.57-.91-.8-1.3-.5v.02Z"/></g></svg>