<svg xmlns="http://www.w3.org/2000/svg" width="27.182" height="23" viewBox="0 0 27.182 23"><defs><style>.a{fill:#fff;}</style></defs><g transform="translate(-3.375 -5.625)"><path class="a" d="M19.8,26.318a2.618,2.618,0,0,1,4.8,0h4.92a1.049,1.049,0,0,1,1.045,1.045h0a1.049,1.049,0,0,1-1.045,1.045h-4.92a2.618,2.618,0,0,1-4.8,0H4.42a1.049,1.049,0,0,1-1.045-1.045h0A1.049,1.049,0,0,1,4.42,26.318Z" transform="translate(0 -1.352)"/><path class="a" d="M9.341,16.756a2.618,2.618,0,0,1,4.8,0H29.511A1.049,1.049,0,0,1,30.557,17.8h0a1.049,1.049,0,0,1-1.045,1.045H14.137a2.618,2.618,0,0,1-4.8,0H4.42A1.049,1.049,0,0,1,3.375,17.8h0A1.049,1.049,0,0,1,4.42,16.756Z" transform="translate(0 -0.676)"/><path class="a" d="M19.8,7.193a2.618,2.618,0,0,1,4.8,0h4.92a1.049,1.049,0,0,1,1.045,1.045h0a1.049,1.049,0,0,1-1.045,1.045h-4.92a2.618,2.618,0,0,1-4.8,0H4.42A1.049,1.049,0,0,1,3.375,8.239h0A1.049,1.049,0,0,1,4.42,7.193Z" transform="translate(0 0)"/></g></svg>